<?xml version="1.0" encoding="utf-8"?>
<!-- Generator: Adobe Illustrator 16.0.0, SVG Export Plug-In . SVG Version: 6.00 Build 0)  -->
<!DOCTYPE svg PUBLIC "-//W3C//DTD SVG 1.1//EN" "http://www.w3.org/Graphics/SVG/1.1/DTD/svg11.dtd">
<svg version="1.1" id="Layer_1" xmlns="http://www.w3.org/2000/svg" xmlns:xlink="http://www.w3.org/1999/xlink" x="0px" y="0px"
	 width="486.767px" height="335.118px" viewBox="152.436 138.291 486.767 335.118"
	 enable-background="new 152.436 138.291 486.767 335.118" xml:space="preserve">
<g>
	<g id="XMLID_2_">
		<g>
			<path fill="#FFFFFF" d="M512.038,190.311l127.165,283.098h-44l-27.962-64.707h-47.185l29.065,64.707h-52.105l-27.919-64.707
				h-15.869l-29.701,64.707h-56.136l-35.727-82.612l-37.806,82.612h-51.256l64.622-138.791l-23.676-54.269l-87.79,193.06h-43.322
				l131.79-283.098l44.298,98.567l70.096-150.587l67.592,150.502L512.038,190.311z M550.862,370.939l-39.503-90.59l-24.694,54.014
				l-16.718,36.576h33.138H550.862z M440.755,343.401l-42.939-98.482l-44.935,98.228l4.031,8.952l20.112,44.724l19.094,42.516
				l19.771-42.516l20.834-44.724L440.755,343.401z"/>
		</g>
	</g>
</g>
</svg>
