<?xml version="1.0" encoding="utf-8"?>
<!-- Generator: Adobe Illustrator 16.0.0, SVG Export Plug-In . SVG Version: 6.00 Build 0)  -->
<!DOCTYPE svg PUBLIC "-//W3C//DTD SVG 1.1//EN" "http://www.w3.org/Graphics/SVG/1.1/DTD/svg11.dtd">
<svg version="1.1" id="Layer_1" xmlns="http://www.w3.org/2000/svg" xmlns:xlink="http://www.w3.org/1999/xlink" x="0px" y="0px"
	 width="220.8px" height="156.78px" viewBox="0 0 220.8 156.78" enable-background="new 0 0 220.8 156.78" xml:space="preserve">
<g>
	<g id="XMLID_4_">
		<g>
			<path fill="#FFFFFF" d="M220.8,156.78h-16.28L191.65,114.17h-43.94l13.94,42.609h-16.29L110.39,43.01l-29.57,96.52L51.06,43.01
				L16.28,156.78H0L51.06,0l29.72,90.92L110.39,0l29.629,90.65L169.54,0L220.8,156.78z M188.04,101.51l-18.5-58.5l-18.29,58.5
				H188.04z"/>
		</g>
		<g>
			<polyline fill="#FFFFFF" stroke="#000000" stroke-width="0" stroke-linecap="round" stroke-linejoin="round" points="
				80.78,90.92 51.06,0 0,156.78 16.28,156.78 51.06,43.01 80.82,139.53 			"/>
			<polyline fill="#FFFFFF" stroke="#000000" stroke-width="0" stroke-linecap="round" stroke-linejoin="round" points="
				140.07,139.24 145.36,156.78 161.65,156.78 147.71,114.17 			"/>
			
				<line fill="#FFFFFF" stroke="#000000" stroke-width="0" stroke-linecap="round" stroke-linejoin="round" x1="110.39" y1="43.01" x2="80.82" y2="139.53"/>
			
				<line fill="#FFFFFF" stroke="#000000" stroke-width="0" stroke-linecap="round" stroke-linejoin="round" x1="110.39" y1="43.01" x2="145.36" y2="156.78"/>
		</g>
	</g>
</g>
</svg>
